<?xml version="1.0" encoding="utf-8"?>
<!-- Generator: Adobe Illustrator 22.1.0, SVG Export Plug-In . SVG Version: 6.00 Build 0)  -->
<svg version="1.1" id="Lager_1" xmlns="http://www.w3.org/2000/svg" xmlns:xlink="http://www.w3.org/1999/xlink" x="0px" y="0px"
	 viewBox="0 0 805.8 129.7" style="enable-background:new 0 0 805.8 129.7;" xml:space="preserve">
<style type="text/css">
	.st0{fill:#FFFFFF;}
	.st1{font-family:'AkzidenzGroteskBQ-Medium';}
	.st2{font-size:63px;}
	.st3{letter-spacing:-1;}
	.st4{letter-spacing:1;}
	.st5{letter-spacing:-2;}
</style>
<title>Rityta 1</title>
<text transform="matrix(1 0 0 1 213 53.739)" class="st0 st1 st2">N</text>
<text transform="matrix(1 0 0 1 256.8 53.739)" class="st0 st1 st2">O</text>
<text transform="matrix(1 0 0 1 304.53 53.739)" class="st0 st1 st2">R</text>
<text transform="matrix(1 0 0 1 344.94 53.739)" class="st0 st1 st2">D</text>
<text transform="matrix(1 0 0 1 389.14 53.739)" class="st0 st1 st2">I</text>
<text transform="matrix(1 0 0 1 407.15 53.739)" class="st0 st1 st2">C </text>
<text transform="matrix(1 0 0 1 468.64 53.739)" class="st0 st1 st2 st3">P</text>
<text transform="matrix(1 0 0 1 506.94 53.739)" class="st0 st1 st2 st3">R</text>
<text transform="matrix(1 0 0 1 546.44 53.739)" class="st0 st1 st2">O</text>
<text transform="matrix(1 0 0 1 594.1401 53.739)" class="st0 st1 st2 st3">P</text>
<text transform="matrix(1 0 0 1 632.54 53.739)" class="st0 st1 st2">E</text>
<text transform="matrix(1 0 0 1 671.9001 53.739)" class="st0 st1 st2">R</text>
<text transform="matrix(1 0 0 1 711.8901 53.739)" class="st0 st1 st2 st4">T</text>
<text transform="matrix(1 0 0 1 748.32 53.739)" class="st0 st1 st2">Y </text>
<text transform="matrix(1 0 0 1 213 115.739)" class="st0 st1 st2">M</text>
<text transform="matrix(1 0 0 1 263.41 115.739)" class="st0 st1 st2 st3">A</text>
<text transform="matrix(1 0 0 1 303.08 115.739)" class="st0 st1 st2">N</text>
<text transform="matrix(1 0 0 1 346.87 115.739)" class="st0 st1 st2 st5">A</text>
<text transform="matrix(1 0 0 1 384.99 115.739)" class="st0 st1 st2">G</text>
<text transform="matrix(1 0 0 1 431.94 115.739)" class="st0 st1 st2">E</text>
<text transform="matrix(1 0 0 1 471.46 115.739)" class="st0 st1 st2">M</text>
<text transform="matrix(1 0 0 1 522.09 115.739)" class="st0 st1 st2">E</text>
<text transform="matrix(1 0 0 1 561.4101 115.739)" class="st0 st1 st2 st3">N</text>
<text transform="matrix(1 0 0 1 604.6501 115.739)" class="st0 st1 st2">T</text>
<polygon class="st0" points="0,117.2 65.6,117.2 0,20.6 "/>
<path class="st0" d="M77,67.5v49.7h26.5V67.5H77z"/>
<path class="st0" d="M113.4,67.5l0.7,49.7H150L130,66C125.5,67,120.3,67.4,113.4,67.5z"/>
<path class="st0" d="M129.7,6.4c5.6,1,10.3,3.1,14.5,7.9c3.1,3.5,7.4,10.6,7.4,22c0.1,7.3-2.1,14.5-6.4,20.5
	c-1.7,2.2-3.8,4.1-6.1,5.6l15.5,38.9l36.3-94.9L129.7,6.4z"/>
<polygon class="st0" points="66.2,100.7 66.2,6.4 0.8,6.4 "/>
<polygon class="st0" points="194.8,22.2 158.4,117.2 194.8,117.2 "/>
</svg>
